<svg width="27" height="31" viewBox="0 0 27 31" fill="none" xmlns="http://www.w3.org/2000/svg">
<path d="M3.29167 30.0832H23.7083C25.3169 30.0832 26.625 28.775 26.625 27.1665V6.74984C26.625 5.1413 25.3169 3.83317 23.7083 3.83317H20.7917V0.916504H17.875V3.83317H9.125V0.916504H6.20833V3.83317H3.29167C1.68313 3.83317 0.375 5.1413 0.375 6.74984V27.1665C0.375 28.775 1.68313 30.0832 3.29167 30.0832ZM10.2902 27.1475H7.66667V24.524L14.9248 17.2761L17.5483 19.8996L10.2902 27.1475ZM18.7835 18.6644L16.16 16.0409L18.1608 14.0415L20.7844 16.665L18.7835 18.6644ZM3.29167 8.20817H23.7083V11.1248H3.29167V8.20817Z" fill="#FD6642"/>
</svg>
