<svg width="28" height="28" viewBox="0 0 28 28" fill="none" xmlns="http://www.w3.org/2000/svg">
<path d="M24.6266 12.4998C24.859 14.0322 24.7566 15.5966 24.3263 17.0856C23.896 18.5745 23.1482 19.9525 22.1343 21.1246C21.1203 22.2968 19.8644 23.2353 18.453 23.8755C17.0415 24.5157 15.5081 24.8424 13.9583 24.8332C7.94581 24.8332 3.16665 20.054 3.16665 14.0415C3.16665 8.029 7.94581 3.24984 13.9583 3.24984C15.0375 3.24984 16.0704 3.404 17.0416 3.69692V0.521087C16.055 0.289837 15.0221 0.166504 13.9583 0.166504C6.24998 0.166504 0.083313 6.33317 0.083313 14.0415C0.083313 21.7498 6.24998 27.9165 13.9583 27.9165C15.9127 27.9246 17.8465 27.5181 19.6321 26.7237C21.4178 25.9293 23.0146 24.7652 24.3171 23.3082C25.6197 21.8512 26.5984 20.1344 27.1885 18.2713C27.7787 16.4082 27.9669 14.4411 27.7408 12.4998H24.6266Z" fill="#FD6642"/>
</svg>
