<svg width="42" height="42" viewBox="0 0 42 42" fill="none" xmlns="http://www.w3.org/2000/svg">
<path d="M21.0001 0.166504C9.70633 0.166504 0.166748 9.70609 0.166748 20.9998C0.166748 32.2936 9.70633 41.8332 21.0001 41.8332C32.2938 41.8332 41.8334 32.2936 41.8334 20.9998C41.8334 9.70609 32.2938 0.166504 21.0001 0.166504ZM21.0001 10.5832C24.598 10.5832 27.2501 13.2332 27.2501 16.8332C27.2501 20.4332 24.598 23.0832 21.0001 23.0832C17.4042 23.0832 14.7501 20.4332 14.7501 16.8332C14.7501 13.2332 17.4042 10.5832 21.0001 10.5832ZM10.3626 30.9415C12.2313 28.1915 15.348 26.3582 18.9167 26.3582H23.0834C26.6542 26.3582 29.7688 28.1915 31.6376 30.9415C28.9751 33.7915 25.198 35.5832 21.0001 35.5832C16.8022 35.5832 13.0251 33.7915 10.3626 30.9415Z" fill="url(#paint0_linear)"/>
<defs>
<linearGradient id="paint0_linear" x1="41.8334" y1="20.9999" x2="-2.82238" y2="20.9999" gradientUnits="userSpaceOnUse">
<stop stop-color="#FD4F56"/>
<stop offset="1" stop-color="#FD4F56"/>
</linearGradient>
</defs>
</svg>
