<svg width="40" height="40" viewBox="0 0 40 40" fill="none" xmlns="http://www.w3.org/2000/svg">
<path d="M36.3427 16.736H35.0002V16.6668H20.0002V23.3335H29.4193C28.0452 27.2143 24.3527 30.0002 20.0002 30.0002C14.4777 30.0002 10.0002 25.5227 10.0002 20.0002C10.0002 14.4777 14.4777 10.0002 20.0002 10.0002C22.5493 10.0002 24.8685 10.9618 26.6343 12.5327L31.3485 7.8185C28.3718 5.04433 24.3902 3.3335 20.0002 3.3335C10.796 3.3335 3.3335 10.796 3.3335 20.0002C3.3335 29.2043 10.796 36.6668 20.0002 36.6668C29.2043 36.6668 36.6668 29.2043 36.6668 20.0002C36.6668 18.8827 36.5518 17.7918 36.3427 16.736Z" fill="#FFC107"/>
<path d="M5.25488 12.2427L10.7307 16.2585C12.2124 12.5902 15.8007 10.0002 19.9999 10.0002C22.549 10.0002 24.8682 10.9618 26.6341 12.5327L31.3482 7.8185C28.3715 5.04433 24.3899 3.3335 19.9999 3.3335C13.5982 3.3335 8.04655 6.94766 5.25488 12.2427Z" fill="#FF3D00"/>
<path d="M20.0001 36.6667C24.3051 36.6667 28.2168 35.0192 31.1743 32.3401L26.0159 27.9751C24.2864 29.2904 22.173 30.0018 20.0001 30.0001C15.6651 30.0001 11.9843 27.2359 10.5976 23.3784L5.1626 27.5659C7.92093 32.9634 13.5226 36.6667 20.0001 36.6667Z" fill="#4CAF50"/>
<path d="M36.3425 16.7357H35V16.6665H20V23.3332H29.4192C28.7618 25.1802 27.5778 26.7942 26.0133 27.9757L26.0158 27.974L31.1742 32.339C30.8092 32.6707 36.6667 28.3332 36.6667 19.9998C36.6667 18.8823 36.5517 17.7915 36.3425 16.7357Z" fill="#1976D2"/>
</svg>
